<svg xmlns="http://www.w3.org/2000/svg" viewBox="0 0 99.33 53.38"><defs><style>.cls-1{fill:#612aff;}</style></defs><g id="レイヤー_2" data-name="レイヤー 2"><g id="レイヤー_1-2" data-name="レイヤー 1"><path class="cls-1" d="M86,6.06C76.92,1.68,62.81-.1,49.67,0,36.52-.1,22.42,1.68,13.35,6.06,4,10.3-.3,17.16,0,24.09c-.33,6.93,4,13.79,13.33,18,9.07,4.37,23.17,6.15,36.32,6A126.31,126.31,0,0,0,68.3,47L80,53.38,78.21,45A46.76,46.76,0,0,0,86,42.13c9.34-4.25,13.64-11.11,13.33-18C99.63,17.16,95.33,10.3,86,6.06Z"/></g></g></svg>